<mxfile host="65bd71144e">
    <diagram id="KX5IA-no8OIPDdIY10QK" name="Page-1">
        <mxGraphModel dx="1958" dy="1883" grid="1" gridSize="10" guides="1" tooltips="1" connect="1" arrows="1" fold="1" page="1" pageScale="1" pageWidth="827" pageHeight="1169" math="0" shadow="0">
            <root>
                <mxCell id="0"/>
                <mxCell id="1" parent="0"/>
                <mxCell id="13" value="" style="group" vertex="1" connectable="0" parent="1">
                    <mxGeometry x="40" y="50" width="360" height="590" as="geometry"/>
                </mxCell>
                <mxCell id="11" value="" style="shape=folder;fontStyle=1;tabWidth=150;tabHeight=40;tabPosition=left;html=1;boundedLbl=1;" vertex="1" parent="13">
                    <mxGeometry width="360" height="590" as="geometry"/>
                </mxCell>
                <mxCell id="12" value="UI Layer" style="text;html=1;resizable=0;autosize=1;align=center;verticalAlign=middle;points=[];fillColor=none;strokeColor=none;rounded=0;fontSize=18;fontStyle=1" vertex="1" parent="13">
                    <mxGeometry x="29.03225806451613" y="9.516129032258066" width="90" height="30" as="geometry"/>
                </mxCell>
                <mxCell id="20" value="" style="fontStyle=1;align=center;verticalAlign=top;childLayout=stackLayout;horizontal=1;horizontalStack=0;resizeParent=1;resizeParentMax=0;resizeLast=0;marginBottom=0;fontSize=18;" vertex="1" parent="13">
                    <mxGeometry x="40" y="100" width="220" height="38" as="geometry"/>
                </mxCell>
                <mxCell id="21" value="&lt;font style=&quot;font-size: 16px&quot;&gt;MenuUI&lt;/font&gt;" style="html=1;align=left;spacingLeft=4;verticalAlign=top;strokeColor=none;fillColor=none;" vertex="1" parent="20">
                    <mxGeometry width="220" height="30" as="geometry"/>
                </mxCell>
                <mxCell id="22" value="" style="shape=module;jettyWidth=10;jettyHeight=4;" vertex="1" parent="21">
                    <mxGeometry x="1" width="16" height="20" relative="1" as="geometry">
                        <mxPoint x="-25" y="9" as="offset"/>
                    </mxGeometry>
                </mxCell>
                <mxCell id="23" value="" style="line;strokeWidth=1;fillColor=none;align=left;verticalAlign=middle;spacingTop=-1;spacingLeft=3;spacingRight=3;rotatable=0;labelPosition=right;points=[];portConstraint=eastwest;" vertex="1" parent="20">
                    <mxGeometry y="30" width="220" height="8" as="geometry"/>
                </mxCell>
                <mxCell id="33" value="" style="fontStyle=1;align=center;verticalAlign=top;childLayout=stackLayout;horizontal=1;horizontalStack=0;resizeParent=1;resizeParentMax=0;resizeLast=0;marginBottom=0;fontSize=18;" vertex="1" parent="13">
                    <mxGeometry x="119.03" y="282" width="140" height="38" as="geometry"/>
                </mxCell>
                <mxCell id="34" value="HousingUI" style="html=1;align=left;spacingLeft=4;verticalAlign=top;strokeColor=none;fillColor=none;" vertex="1" parent="33">
                    <mxGeometry width="140" height="30" as="geometry"/>
                </mxCell>
                <mxCell id="35" value="" style="shape=module;jettyWidth=10;jettyHeight=4;" vertex="1" parent="34">
                    <mxGeometry x="1" width="16" height="20" relative="1" as="geometry">
                        <mxPoint x="-25" y="9" as="offset"/>
                    </mxGeometry>
                </mxCell>
                <mxCell id="36" value="" style="line;strokeWidth=1;fillColor=none;align=left;verticalAlign=middle;spacingTop=-1;spacingLeft=3;spacingRight=3;rotatable=0;labelPosition=right;points=[];portConstraint=eastwest;" vertex="1" parent="33">
                    <mxGeometry y="30" width="140" height="8" as="geometry"/>
                </mxCell>
                <mxCell id="41" value="" style="fontStyle=1;align=center;verticalAlign=top;childLayout=stackLayout;horizontal=1;horizontalStack=0;resizeParent=1;resizeParentMax=0;resizeLast=0;marginBottom=0;fontSize=18;" vertex="1" parent="13">
                    <mxGeometry x="119.03" y="160" width="140" height="38" as="geometry"/>
                </mxCell>
                <mxCell id="42" value="LoginUI" style="html=1;align=left;spacingLeft=4;verticalAlign=top;strokeColor=none;fillColor=none;" vertex="1" parent="41">
                    <mxGeometry width="140" height="30" as="geometry"/>
                </mxCell>
                <mxCell id="43" value="" style="shape=module;jettyWidth=10;jettyHeight=4;" vertex="1" parent="42">
                    <mxGeometry x="1" width="16" height="20" relative="1" as="geometry">
                        <mxPoint x="-25" y="9" as="offset"/>
                    </mxGeometry>
                </mxCell>
                <mxCell id="44" value="" style="line;strokeWidth=1;fillColor=none;align=left;verticalAlign=middle;spacingTop=-1;spacingLeft=3;spacingRight=3;rotatable=0;labelPosition=right;points=[];portConstraint=eastwest;" vertex="1" parent="41">
                    <mxGeometry y="30" width="140" height="8" as="geometry"/>
                </mxCell>
                <mxCell id="29" value="" style="fontStyle=1;align=center;verticalAlign=top;childLayout=stackLayout;horizontal=1;horizontalStack=0;resizeParent=1;resizeParentMax=0;resizeLast=0;marginBottom=0;fontSize=18;" vertex="1" parent="13">
                    <mxGeometry x="119.03" y="220" width="140" height="38" as="geometry"/>
                </mxCell>
                <mxCell id="30" value="StaffUI" style="html=1;align=left;spacingLeft=4;verticalAlign=top;strokeColor=none;fillColor=none;" vertex="1" parent="29">
                    <mxGeometry width="140" height="30" as="geometry"/>
                </mxCell>
                <mxCell id="31" value="" style="shape=module;jettyWidth=10;jettyHeight=4;" vertex="1" parent="30">
                    <mxGeometry x="1" width="16" height="20" relative="1" as="geometry">
                        <mxPoint x="-25" y="9" as="offset"/>
                    </mxGeometry>
                </mxCell>
                <mxCell id="32" value="" style="line;strokeWidth=1;fillColor=none;align=left;verticalAlign=middle;spacingTop=-1;spacingLeft=3;spacingRight=3;rotatable=0;labelPosition=right;points=[];portConstraint=eastwest;" vertex="1" parent="29">
                    <mxGeometry y="30" width="140" height="8" as="geometry"/>
                </mxCell>
                <mxCell id="37" value="" style="fontStyle=1;align=center;verticalAlign=top;childLayout=stackLayout;horizontal=1;horizontalStack=0;resizeParent=1;resizeParentMax=0;resizeLast=0;marginBottom=0;fontSize=18;" vertex="1" parent="13">
                    <mxGeometry x="119.03" y="340" width="140" height="38" as="geometry"/>
                </mxCell>
                <mxCell id="38" value="MaintenanceUI" style="html=1;align=left;spacingLeft=4;verticalAlign=top;strokeColor=none;fillColor=none;" vertex="1" parent="37">
                    <mxGeometry width="140" height="30" as="geometry"/>
                </mxCell>
                <mxCell id="39" value="" style="shape=module;jettyWidth=10;jettyHeight=4;" vertex="1" parent="38">
                    <mxGeometry x="1" width="16" height="20" relative="1" as="geometry">
                        <mxPoint x="-25" y="9" as="offset"/>
                    </mxGeometry>
                </mxCell>
                <mxCell id="40" value="" style="line;strokeWidth=1;fillColor=none;align=left;verticalAlign=middle;spacingTop=-1;spacingLeft=3;spacingRight=3;rotatable=0;labelPosition=right;points=[];portConstraint=eastwest;" vertex="1" parent="37">
                    <mxGeometry y="30" width="140" height="8" as="geometry"/>
                </mxCell>
                <mxCell id="45" value="" style="fontStyle=1;align=center;verticalAlign=top;childLayout=stackLayout;horizontal=1;horizontalStack=0;resizeParent=1;resizeParentMax=0;resizeLast=0;marginBottom=0;fontSize=18;" vertex="1" parent="13">
                    <mxGeometry x="119.03" y="400" width="140" height="38" as="geometry"/>
                </mxCell>
                <mxCell id="46" value="ReportUI" style="html=1;align=left;spacingLeft=4;verticalAlign=top;strokeColor=none;fillColor=none;" vertex="1" parent="45">
                    <mxGeometry width="140" height="30" as="geometry"/>
                </mxCell>
                <mxCell id="47" value="" style="shape=module;jettyWidth=10;jettyHeight=4;" vertex="1" parent="46">
                    <mxGeometry x="1" width="16" height="20" relative="1" as="geometry">
                        <mxPoint x="-25" y="9" as="offset"/>
                    </mxGeometry>
                </mxCell>
                <mxCell id="48" value="" style="line;strokeWidth=1;fillColor=none;align=left;verticalAlign=middle;spacingTop=-1;spacingLeft=3;spacingRight=3;rotatable=0;labelPosition=right;points=[];portConstraint=eastwest;" vertex="1" parent="45">
                    <mxGeometry y="30" width="140" height="8" as="geometry"/>
                </mxCell>
                <mxCell id="52" style="edgeStyle=orthogonalEdgeStyle;html=1;entryX=0;entryY=0.5;entryDx=0;entryDy=0;fontSize=18;exitX=0.043;exitY=1.041;exitDx=0;exitDy=0;exitPerimeter=0;rounded=0;endSize=9;strokeWidth=2;endArrow=none;endFill=0;startArrow=block;startFill=1;startSize=10;" edge="1" parent="13" source="20" target="46">
                    <mxGeometry relative="1" as="geometry"/>
                </mxCell>
                <mxCell id="14" value="" style="group" vertex="1" connectable="0" parent="1">
                    <mxGeometry x="460" y="50" width="630" height="850" as="geometry"/>
                </mxCell>
                <mxCell id="15" value="" style="shape=folder;fontStyle=1;tabWidth=150;tabHeight=40;tabPosition=left;html=1;boundedLbl=1;" vertex="1" parent="14">
                    <mxGeometry width="630" height="840" as="geometry"/>
                </mxCell>
                <mxCell id="16" value="Logic Layer" style="text;html=1;resizable=0;autosize=1;align=center;verticalAlign=middle;points=[];fillColor=none;strokeColor=none;rounded=0;fontSize=18;fontStyle=1" vertex="1" parent="14">
                    <mxGeometry x="20.32258064516129" y="13.225806451612906" width="120" height="30" as="geometry"/>
                </mxCell>
                <mxCell id="60" value="" style="fontStyle=1;align=center;verticalAlign=top;childLayout=stackLayout;horizontal=1;horizontalStack=0;resizeParent=1;resizeParentMax=0;resizeLast=0;marginBottom=0;fontSize=18;" vertex="1" parent="14">
                    <mxGeometry x="80" y="100" width="250" height="38" as="geometry"/>
                </mxCell>
                <mxCell id="61" value="&lt;span style=&quot;font-size: 16px&quot;&gt;User&lt;/span&gt;" style="html=1;align=left;spacingLeft=4;verticalAlign=top;strokeColor=none;fillColor=none;" vertex="1" parent="60">
                    <mxGeometry width="250" height="30" as="geometry"/>
                </mxCell>
                <mxCell id="62" value="" style="shape=module;jettyWidth=10;jettyHeight=4;" vertex="1" parent="61">
                    <mxGeometry x="1" width="16" height="20" relative="1" as="geometry">
                        <mxPoint x="-25" y="9" as="offset"/>
                    </mxGeometry>
                </mxCell>
                <mxCell id="63" value="" style="line;strokeWidth=1;fillColor=none;align=left;verticalAlign=middle;spacingTop=-1;spacingLeft=3;spacingRight=3;rotatable=0;labelPosition=right;points=[];portConstraint=eastwest;" vertex="1" parent="60">
                    <mxGeometry y="30" width="250" height="8" as="geometry"/>
                </mxCell>
                <mxCell id="65" value="" style="fontStyle=1;align=center;verticalAlign=top;childLayout=stackLayout;horizontal=1;horizontalStack=0;resizeParent=1;resizeParentMax=0;resizeLast=0;marginBottom=0;fontSize=18;" vertex="1" parent="14">
                    <mxGeometry x="160" y="170" width="170" height="38" as="geometry"/>
                </mxCell>
                <mxCell id="66" value="&lt;span style=&quot;font-size: 16px&quot;&gt;Employee&lt;/span&gt;" style="html=1;align=left;spacingLeft=4;verticalAlign=top;strokeColor=none;fillColor=none;" vertex="1" parent="65">
                    <mxGeometry width="170" height="30" as="geometry"/>
                </mxCell>
                <mxCell id="67" value="" style="shape=module;jettyWidth=10;jettyHeight=4;" vertex="1" parent="66">
                    <mxGeometry x="1" width="16" height="20" relative="1" as="geometry">
                        <mxPoint x="-25" y="9" as="offset"/>
                    </mxGeometry>
                </mxCell>
                <mxCell id="68" value="" style="line;strokeWidth=1;fillColor=none;align=left;verticalAlign=middle;spacingTop=-1;spacingLeft=3;spacingRight=3;rotatable=0;labelPosition=right;points=[];portConstraint=eastwest;" vertex="1" parent="65">
                    <mxGeometry y="30" width="170" height="8" as="geometry"/>
                </mxCell>
                <mxCell id="69" style="edgeStyle=none;rounded=0;html=1;entryX=0.66;entryY=1.25;entryDx=0;entryDy=0;entryPerimeter=0;dashed=1;dashPattern=1 1;fontSize=18;startArrow=none;startFill=0;endArrow=open;endFill=0;startSize=10;endSize=9;strokeWidth=2;" edge="1" parent="14" source="66" target="63">
                    <mxGeometry relative="1" as="geometry"/>
                </mxCell>
                <mxCell id="77" value="" style="fontStyle=1;align=center;verticalAlign=top;childLayout=stackLayout;horizontal=1;horizontalStack=0;resizeParent=1;resizeParentMax=0;resizeLast=0;marginBottom=0;fontSize=18;" vertex="1" parent="14">
                    <mxGeometry x="160" y="220" width="170" height="38" as="geometry"/>
                </mxCell>
                <mxCell id="78" value="&lt;span style=&quot;font-size: 16px&quot;&gt;Manager&lt;/span&gt;" style="html=1;align=left;spacingLeft=4;verticalAlign=top;strokeColor=none;fillColor=none;" vertex="1" parent="77">
                    <mxGeometry width="170" height="30" as="geometry"/>
                </mxCell>
                <mxCell id="79" value="" style="shape=module;jettyWidth=10;jettyHeight=4;" vertex="1" parent="78">
                    <mxGeometry x="1" width="16" height="20" relative="1" as="geometry">
                        <mxPoint x="-25" y="9" as="offset"/>
                    </mxGeometry>
                </mxCell>
                <mxCell id="80" value="" style="line;strokeWidth=1;fillColor=none;align=left;verticalAlign=middle;spacingTop=-1;spacingLeft=3;spacingRight=3;rotatable=0;labelPosition=right;points=[];portConstraint=eastwest;" vertex="1" parent="77">
                    <mxGeometry y="30" width="170" height="8" as="geometry"/>
                </mxCell>
                <mxCell id="71" value="" style="fontStyle=1;align=center;verticalAlign=top;childLayout=stackLayout;horizontal=1;horizontalStack=0;resizeParent=1;resizeParentMax=0;resizeLast=0;marginBottom=0;fontSize=18;" vertex="1" parent="14">
                    <mxGeometry x="80" y="290" width="250" height="38" as="geometry"/>
                </mxCell>
                <mxCell id="72" value="&lt;span style=&quot;font-size: 16px&quot;&gt;Housing&lt;/span&gt;" style="html=1;align=left;spacingLeft=4;verticalAlign=top;strokeColor=none;fillColor=none;" vertex="1" parent="71">
                    <mxGeometry width="250" height="30" as="geometry"/>
                </mxCell>
                <mxCell id="73" value="" style="shape=module;jettyWidth=10;jettyHeight=4;" vertex="1" parent="72">
                    <mxGeometry x="1" width="16" height="20" relative="1" as="geometry">
                        <mxPoint x="-25" y="9" as="offset"/>
                    </mxGeometry>
                </mxCell>
                <mxCell id="74" value="" style="line;strokeWidth=1;fillColor=none;align=left;verticalAlign=middle;spacingTop=-1;spacingLeft=3;spacingRight=3;rotatable=0;labelPosition=right;points=[];portConstraint=eastwest;" vertex="1" parent="71">
                    <mxGeometry y="30" width="250" height="8" as="geometry"/>
                </mxCell>
                <mxCell id="82" value="" style="fontStyle=1;align=center;verticalAlign=top;childLayout=stackLayout;horizontal=1;horizontalStack=0;resizeParent=1;resizeParentMax=0;resizeLast=0;marginBottom=0;fontSize=18;" vertex="1" parent="14">
                    <mxGeometry x="390" y="290" width="130" height="38" as="geometry"/>
                </mxCell>
                <mxCell id="83" value="&lt;span style=&quot;font-size: 16px&quot;&gt;Destination&lt;/span&gt;" style="html=1;align=left;spacingLeft=4;verticalAlign=top;strokeColor=none;fillColor=none;" vertex="1" parent="82">
                    <mxGeometry width="130" height="30" as="geometry"/>
                </mxCell>
                <mxCell id="84" value="" style="shape=module;jettyWidth=10;jettyHeight=4;" vertex="1" parent="83">
                    <mxGeometry x="1" width="16" height="20" relative="1" as="geometry">
                        <mxPoint x="-25" y="9" as="offset"/>
                    </mxGeometry>
                </mxCell>
                <mxCell id="85" value="" style="line;strokeWidth=1;fillColor=none;align=left;verticalAlign=middle;spacingTop=-1;spacingLeft=3;spacingRight=3;rotatable=0;labelPosition=right;points=[];portConstraint=eastwest;" vertex="1" parent="82">
                    <mxGeometry y="30" width="130" height="8" as="geometry"/>
                </mxCell>
                <mxCell id="86" style="edgeStyle=none;rounded=0;html=1;entryX=0.5;entryY=0;entryDx=0;entryDy=0;fontSize=18;startArrow=none;startFill=0;endArrow=open;endFill=0;startSize=10;endSize=9;strokeWidth=2;exitX=0.999;exitY=0.632;exitDx=0;exitDy=0;exitPerimeter=0;" edge="1" parent="14" source="78" target="83">
                    <mxGeometry relative="1" as="geometry">
                        <Array as="points">
                            <mxPoint x="455" y="240"/>
                        </Array>
                    </mxGeometry>
                </mxCell>
                <mxCell id="87" style="edgeStyle=none;rounded=0;html=1;entryX=0.5;entryY=0;entryDx=0;entryDy=0;fontSize=18;startArrow=none;startFill=0;endArrow=open;endFill=0;startSize=10;endSize=9;strokeWidth=2;" edge="1" parent="14" source="66" target="83">
                    <mxGeometry relative="1" as="geometry">
                        <Array as="points">
                            <mxPoint x="455" y="185"/>
                        </Array>
                    </mxGeometry>
                </mxCell>
                <mxCell id="93" value="" style="fontStyle=1;align=center;verticalAlign=top;childLayout=stackLayout;horizontal=1;horizontalStack=0;resizeParent=1;resizeParentMax=0;resizeLast=0;marginBottom=0;fontSize=18;" vertex="1" parent="14">
                    <mxGeometry x="130" y="370" width="200" height="38" as="geometry"/>
                </mxCell>
                <mxCell id="94" value="&lt;span style=&quot;font-size: 16px&quot;&gt;Maintenance Request&lt;/span&gt;" style="html=1;align=left;spacingLeft=4;verticalAlign=top;strokeColor=none;fillColor=none;" vertex="1" parent="93">
                    <mxGeometry width="200" height="30" as="geometry"/>
                </mxCell>
                <mxCell id="95" value="" style="shape=module;jettyWidth=10;jettyHeight=4;" vertex="1" parent="94">
                    <mxGeometry x="1" width="16" height="20" relative="1" as="geometry">
                        <mxPoint x="-25" y="9" as="offset"/>
                    </mxGeometry>
                </mxCell>
                <mxCell id="96" value="" style="line;strokeWidth=1;fillColor=none;align=left;verticalAlign=middle;spacingTop=-1;spacingLeft=3;spacingRight=3;rotatable=0;labelPosition=right;points=[];portConstraint=eastwest;" vertex="1" parent="93">
                    <mxGeometry y="30" width="200" height="8" as="geometry"/>
                </mxCell>
                <mxCell id="98" value="" style="fontStyle=1;align=center;verticalAlign=top;childLayout=stackLayout;horizontal=1;horizontalStack=0;resizeParent=1;resizeParentMax=0;resizeLast=0;marginBottom=0;fontSize=18;" vertex="1" parent="14">
                    <mxGeometry x="130" y="430" width="200" height="38" as="geometry"/>
                </mxCell>
                <mxCell id="99" value="&lt;span style=&quot;font-size: 16px&quot;&gt;Maintenance&lt;/span&gt;" style="html=1;align=left;spacingLeft=4;verticalAlign=top;strokeColor=none;fillColor=none;" vertex="1" parent="98">
                    <mxGeometry width="200" height="30" as="geometry"/>
                </mxCell>
                <mxCell id="100" value="" style="shape=module;jettyWidth=10;jettyHeight=4;" vertex="1" parent="99">
                    <mxGeometry x="1" width="16" height="20" relative="1" as="geometry">
                        <mxPoint x="-25" y="9" as="offset"/>
                    </mxGeometry>
                </mxCell>
                <mxCell id="101" value="" style="line;strokeWidth=1;fillColor=none;align=left;verticalAlign=middle;spacingTop=-1;spacingLeft=3;spacingRight=3;rotatable=0;labelPosition=right;points=[];portConstraint=eastwest;" vertex="1" parent="98">
                    <mxGeometry y="30" width="200" height="8" as="geometry"/>
                </mxCell>
                <mxCell id="102" value="" style="fontStyle=1;align=center;verticalAlign=top;childLayout=stackLayout;horizontal=1;horizontalStack=0;resizeParent=1;resizeParentMax=0;resizeLast=0;marginBottom=0;fontSize=18;" vertex="1" parent="14">
                    <mxGeometry x="130" y="510" width="200" height="38" as="geometry"/>
                </mxCell>
                <mxCell id="103" value="&lt;span style=&quot;font-size: 16px&quot;&gt;Contractor&lt;/span&gt;" style="html=1;align=left;spacingLeft=4;verticalAlign=top;strokeColor=none;fillColor=none;" vertex="1" parent="102">
                    <mxGeometry width="200" height="30" as="geometry"/>
                </mxCell>
                <mxCell id="104" value="" style="shape=module;jettyWidth=10;jettyHeight=4;" vertex="1" parent="103">
                    <mxGeometry x="1" width="16" height="20" relative="1" as="geometry">
                        <mxPoint x="-25" y="9" as="offset"/>
                    </mxGeometry>
                </mxCell>
                <mxCell id="105" value="" style="line;strokeWidth=1;fillColor=none;align=left;verticalAlign=middle;spacingTop=-1;spacingLeft=3;spacingRight=3;rotatable=0;labelPosition=right;points=[];portConstraint=eastwest;" vertex="1" parent="102">
                    <mxGeometry y="30" width="200" height="8" as="geometry"/>
                </mxCell>
                <mxCell id="106" style="edgeStyle=none;rounded=0;html=1;entryX=0.597;entryY=0.794;entryDx=0;entryDy=0;entryPerimeter=0;fontSize=18;startArrow=none;startFill=0;endArrow=open;endFill=0;startSize=10;endSize=9;strokeWidth=2;" edge="1" parent="14" source="94" target="74">
                    <mxGeometry relative="1" as="geometry"/>
                </mxCell>
                <mxCell id="107" style="edgeStyle=none;rounded=0;html=1;entryX=0.5;entryY=1;entryDx=0;entryDy=0;fontSize=18;startArrow=none;startFill=0;endArrow=block;endFill=1;startSize=10;endSize=9;strokeWidth=2;" edge="1" parent="14" source="99" target="93">
                    <mxGeometry relative="1" as="geometry"/>
                </mxCell>
                <mxCell id="112" style="edgeStyle=none;rounded=0;html=1;entryX=0.499;entryY=1.036;entryDx=0;entryDy=0;entryPerimeter=0;fontSize=18;startArrow=none;startFill=0;endArrow=open;endFill=0;startSize=10;endSize=9;strokeWidth=2;" edge="1" parent="14" source="103" target="101">
                    <mxGeometry relative="1" as="geometry"/>
                </mxCell>
                <mxCell id="113" value="" style="fontStyle=1;align=center;verticalAlign=top;childLayout=stackLayout;horizontal=1;horizontalStack=0;resizeParent=1;resizeParentMax=0;resizeLast=0;marginBottom=0;fontSize=18;" vertex="1" parent="14">
                    <mxGeometry x="210" y="570" width="120" height="38" as="geometry"/>
                </mxCell>
                <mxCell id="114" value="&lt;span style=&quot;font-size: 16px&quot;&gt;Rating&lt;/span&gt;" style="html=1;align=left;spacingLeft=4;verticalAlign=top;strokeColor=none;fillColor=none;" vertex="1" parent="113">
                    <mxGeometry width="120" height="30" as="geometry"/>
                </mxCell>
                <mxCell id="115" value="" style="shape=module;jettyWidth=10;jettyHeight=4;" vertex="1" parent="114">
                    <mxGeometry x="1" width="16" height="20" relative="1" as="geometry">
                        <mxPoint x="-25" y="9" as="offset"/>
                    </mxGeometry>
                </mxCell>
                <mxCell id="116" value="" style="line;strokeWidth=1;fillColor=none;align=left;verticalAlign=middle;spacingTop=-1;spacingLeft=3;spacingRight=3;rotatable=0;labelPosition=right;points=[];portConstraint=eastwest;" vertex="1" parent="113">
                    <mxGeometry y="30" width="120" height="8" as="geometry"/>
                </mxCell>
                <mxCell id="123" style="edgeStyle=none;rounded=0;html=1;fontSize=18;startArrow=none;startFill=0;endArrow=open;endFill=0;startSize=10;endSize=9;strokeWidth=2;entryX=0.063;entryY=0.984;entryDx=0;entryDy=0;entryPerimeter=0;" edge="1" parent="14" source="114" target="102">
                    <mxGeometry relative="1" as="geometry">
                        <mxPoint x="143" y="550" as="targetPoint"/>
                        <Array as="points">
                            <mxPoint x="143" y="590"/>
                        </Array>
                    </mxGeometry>
                </mxCell>
                <mxCell id="124" value="" style="fontStyle=1;align=center;verticalAlign=top;childLayout=stackLayout;horizontal=1;horizontalStack=0;resizeParent=1;resizeParentMax=0;resizeLast=0;marginBottom=0;fontSize=18;" vertex="1" parent="14">
                    <mxGeometry x="390" y="430" width="120" height="38" as="geometry"/>
                </mxCell>
                <mxCell id="125" value="&lt;span style=&quot;font-size: 16px&quot;&gt;Cost&lt;/span&gt;" style="html=1;align=left;spacingLeft=4;verticalAlign=top;strokeColor=none;fillColor=none;" vertex="1" parent="124">
                    <mxGeometry width="120" height="30" as="geometry"/>
                </mxCell>
                <mxCell id="126" value="" style="shape=module;jettyWidth=10;jettyHeight=4;" vertex="1" parent="125">
                    <mxGeometry x="1" width="16" height="20" relative="1" as="geometry">
                        <mxPoint x="-25" y="9" as="offset"/>
                    </mxGeometry>
                </mxCell>
                <mxCell id="127" value="" style="line;strokeWidth=1;fillColor=none;align=left;verticalAlign=middle;spacingTop=-1;spacingLeft=3;spacingRight=3;rotatable=0;labelPosition=right;points=[];portConstraint=eastwest;" vertex="1" parent="124">
                    <mxGeometry y="30" width="120" height="8" as="geometry"/>
                </mxCell>
                <mxCell id="151" style="edgeStyle=none;rounded=0;html=1;entryX=0.062;entryY=1.036;entryDx=0;entryDy=0;entryPerimeter=0;fontSize=18;startArrow=none;startFill=0;endArrow=block;endFill=1;startSize=10;endSize=9;strokeWidth=2;exitX=0;exitY=0.5;exitDx=0;exitDy=0;" edge="1" parent="14" source="134" target="132">
                    <mxGeometry relative="1" as="geometry">
                        <mxPoint x="129" y="710" as="sourcePoint"/>
                        <Array as="points">
                            <mxPoint x="95" y="765"/>
                        </Array>
                    </mxGeometry>
                </mxCell>
                <mxCell id="157" style="edgeStyle=none;rounded=0;html=1;fontSize=18;startArrow=none;startFill=0;endArrow=open;endFill=0;startSize=10;endSize=9;strokeWidth=2;" edge="1" parent="14" source="134">
                    <mxGeometry relative="1" as="geometry">
                        <mxPoint x="330" y="445" as="targetPoint"/>
                        <Array as="points">
                            <mxPoint x="370" y="765"/>
                            <mxPoint x="370" y="445"/>
                        </Array>
                    </mxGeometry>
                </mxCell>
                <mxCell id="158" style="edgeStyle=none;rounded=0;html=1;fontSize=18;startArrow=none;startFill=0;endArrow=open;endFill=0;startSize=10;endSize=9;strokeWidth=2;entryX=0.5;entryY=1;entryDx=0;entryDy=0;" edge="1" parent="14" source="134" target="124">
                    <mxGeometry relative="1" as="geometry">
                        <mxPoint x="450" y="470" as="targetPoint"/>
                        <Array as="points">
                            <mxPoint x="370" y="765"/>
                            <mxPoint x="370" y="510"/>
                            <mxPoint x="450" y="510"/>
                        </Array>
                    </mxGeometry>
                </mxCell>
                <mxCell id="159" style="edgeStyle=none;rounded=0;html=1;entryX=1;entryY=0.75;entryDx=0;entryDy=0;fontSize=18;startArrow=none;startFill=0;endArrow=open;endFill=0;startSize=10;endSize=9;strokeWidth=2;shadow=0;sketch=0;strokeColor=#B3B3B3;" edge="1" parent="14" source="94" target="103">
                    <mxGeometry relative="1" as="geometry">
                        <Array as="points">
                            <mxPoint x="370" y="385"/>
                            <mxPoint x="370" y="410"/>
                            <mxPoint x="550" y="410"/>
                            <mxPoint x="550" y="533"/>
                        </Array>
                    </mxGeometry>
                </mxCell>
                <mxCell id="187" value="" style="fontStyle=1;align=center;verticalAlign=top;childLayout=stackLayout;horizontal=1;horizontalStack=0;resizeParent=1;resizeParentMax=0;resizeLast=0;marginBottom=0;fontSize=18;" vertex="1" parent="14">
                    <mxGeometry x="390" y="340" width="130" height="38" as="geometry"/>
                </mxCell>
                <mxCell id="188" value="&lt;span style=&quot;font-size: 16px&quot;&gt;Amenity&lt;/span&gt;" style="html=1;align=left;spacingLeft=4;verticalAlign=top;strokeColor=none;fillColor=none;" vertex="1" parent="187">
                    <mxGeometry width="130" height="30" as="geometry"/>
                </mxCell>
                <mxCell id="189" value="" style="shape=module;jettyWidth=10;jettyHeight=4;" vertex="1" parent="188">
                    <mxGeometry x="1" width="16" height="20" relative="1" as="geometry">
                        <mxPoint x="-25" y="9" as="offset"/>
                    </mxGeometry>
                </mxCell>
                <mxCell id="190" value="" style="line;strokeWidth=1;fillColor=none;align=left;verticalAlign=middle;spacingTop=-1;spacingLeft=3;spacingRight=3;rotatable=0;labelPosition=right;points=[];portConstraint=eastwest;" vertex="1" parent="187">
                    <mxGeometry y="30" width="130" height="8" as="geometry"/>
                </mxCell>
                <mxCell id="191" style="edgeStyle=none;rounded=0;sketch=0;html=1;shadow=0;fontSize=18;startArrow=none;startFill=0;endArrow=open;endFill=0;strokeColor=#FFFFFF;strokeWidth=2;" edge="1" parent="14" source="188">
                    <mxGeometry relative="1" as="geometry">
                        <mxPoint x="310" y="328" as="targetPoint"/>
                        <Array as="points">
                            <mxPoint x="310" y="355"/>
                        </Array>
                    </mxGeometry>
                </mxCell>
                <mxCell id="133" value="" style="fontStyle=1;align=center;verticalAlign=top;childLayout=stackLayout;horizontal=1;horizontalStack=0;resizeParent=1;resizeParentMax=0;resizeLast=0;marginBottom=0;fontSize=18;" vertex="1" parent="14">
                    <mxGeometry x="130" y="750" width="200" height="38" as="geometry"/>
                </mxCell>
                <mxCell id="134" value="&lt;span style=&quot;font-size: 16px&quot;&gt;Maintenance Report&lt;/span&gt;" style="html=1;align=left;spacingLeft=4;verticalAlign=top;strokeColor=none;fillColor=none;" vertex="1" parent="133">
                    <mxGeometry width="200" height="30" as="geometry"/>
                </mxCell>
                <mxCell id="135" value="" style="shape=module;jettyWidth=10;jettyHeight=4;" vertex="1" parent="134">
                    <mxGeometry x="1" width="16" height="20" relative="1" as="geometry">
                        <mxPoint x="-25" y="9" as="offset"/>
                    </mxGeometry>
                </mxCell>
                <mxCell id="136" value="" style="line;strokeWidth=1;fillColor=none;align=left;verticalAlign=middle;spacingTop=-1;spacingLeft=3;spacingRight=3;rotatable=0;labelPosition=right;points=[];portConstraint=eastwest;" vertex="1" parent="133">
                    <mxGeometry y="30" width="200" height="8" as="geometry"/>
                </mxCell>
                <mxCell id="129" value="" style="fontStyle=1;align=center;verticalAlign=top;childLayout=stackLayout;horizontal=1;horizontalStack=0;resizeParent=1;resizeParentMax=0;resizeLast=0;marginBottom=0;fontSize=18;" vertex="1" parent="14">
                    <mxGeometry x="80" y="690" width="250" height="38" as="geometry"/>
                </mxCell>
                <mxCell id="130" value="&lt;span style=&quot;font-size: 16px&quot;&gt;Report&lt;/span&gt;" style="html=1;align=left;spacingLeft=4;verticalAlign=top;strokeColor=none;fillColor=none;" vertex="1" parent="129">
                    <mxGeometry width="250" height="30" as="geometry"/>
                </mxCell>
                <mxCell id="131" value="" style="shape=module;jettyWidth=10;jettyHeight=4;" vertex="1" parent="130">
                    <mxGeometry x="1" width="16" height="20" relative="1" as="geometry">
                        <mxPoint x="-25" y="9" as="offset"/>
                    </mxGeometry>
                </mxCell>
                <mxCell id="132" value="" style="line;strokeWidth=1;fillColor=none;align=left;verticalAlign=middle;spacingTop=-1;spacingLeft=3;spacingRight=3;rotatable=0;labelPosition=right;points=[];portConstraint=eastwest;" vertex="1" parent="129">
                    <mxGeometry y="30" width="250" height="8" as="geometry"/>
                </mxCell>
                <mxCell id="259" value="" style="fontStyle=1;align=center;verticalAlign=top;childLayout=stackLayout;horizontal=1;horizontalStack=0;resizeParent=1;resizeParentMax=0;resizeLast=0;marginBottom=0;fontSize=18;" vertex="1" parent="14">
                    <mxGeometry x="210" y="620" width="120" height="38" as="geometry"/>
                </mxCell>
                <mxCell id="260" value="&lt;span style=&quot;font-size: 16px&quot;&gt;Profession&lt;/span&gt;" style="html=1;align=left;spacingLeft=4;verticalAlign=top;strokeColor=none;fillColor=none;" vertex="1" parent="259">
                    <mxGeometry width="120" height="30" as="geometry"/>
                </mxCell>
                <mxCell id="261" value="" style="shape=module;jettyWidth=10;jettyHeight=4;" vertex="1" parent="260">
                    <mxGeometry x="1" width="16" height="20" relative="1" as="geometry">
                        <mxPoint x="-25" y="9" as="offset"/>
                    </mxGeometry>
                </mxCell>
                <mxCell id="262" value="" style="line;strokeWidth=1;fillColor=none;align=left;verticalAlign=middle;spacingTop=-1;spacingLeft=3;spacingRight=3;rotatable=0;labelPosition=right;points=[];portConstraint=eastwest;" vertex="1" parent="259">
                    <mxGeometry y="30" width="120" height="8" as="geometry"/>
                </mxCell>
                <mxCell id="264" style="edgeStyle=none;rounded=0;html=1;fontSize=18;startArrow=none;startFill=0;endArrow=open;endFill=0;startSize=10;endSize=9;strokeWidth=2;entryX=0.063;entryY=0.984;entryDx=0;entryDy=0;entryPerimeter=0;exitX=-0.008;exitY=0.633;exitDx=0;exitDy=0;exitPerimeter=0;" edge="1" parent="14" source="260" target="102">
                    <mxGeometry relative="1" as="geometry">
                        <mxPoint x="143" y="550" as="targetPoint"/>
                        <Array as="points">
                            <mxPoint x="143" y="639"/>
                        </Array>
                    </mxGeometry>
                </mxCell>
                <mxCell id="17" value="" style="group" vertex="1" connectable="0" parent="1">
                    <mxGeometry x="1330" y="105" width="300" height="345" as="geometry"/>
                </mxCell>
                <mxCell id="18" value="" style="shape=folder;fontStyle=1;tabWidth=150;tabHeight=40;tabPosition=left;html=1;boundedLbl=1;" vertex="1" parent="17">
                    <mxGeometry width="300" height="340" as="geometry"/>
                </mxCell>
                <mxCell id="19" value="Data Layer" style="text;html=1;resizable=0;autosize=1;align=center;verticalAlign=middle;points=[];fillColor=none;strokeColor=none;rounded=0;fontSize=18;fontStyle=1" vertex="1" parent="17">
                    <mxGeometry x="21.290322580645164" y="7.741935483870968" width="110" height="30" as="geometry"/>
                </mxCell>
                <mxCell id="176" value="" style="fontStyle=1;align=center;verticalAlign=top;childLayout=stackLayout;horizontal=1;horizontalStack=0;resizeParent=1;resizeParentMax=0;resizeLast=0;marginBottom=0;fontSize=18;" vertex="1" parent="17">
                    <mxGeometry x="40" y="105" width="200" height="38" as="geometry"/>
                </mxCell>
                <mxCell id="177" value="&lt;span style=&quot;font-size: 16px&quot;&gt;OpenFile&lt;/span&gt;" style="html=1;align=left;spacingLeft=4;verticalAlign=top;strokeColor=none;fillColor=none;" vertex="1" parent="176">
                    <mxGeometry width="200" height="30" as="geometry"/>
                </mxCell>
                <mxCell id="178" value="" style="shape=module;jettyWidth=10;jettyHeight=4;" vertex="1" parent="177">
                    <mxGeometry x="1" width="16" height="20" relative="1" as="geometry">
                        <mxPoint x="-25" y="9" as="offset"/>
                    </mxGeometry>
                </mxCell>
                <mxCell id="179" value="" style="line;strokeWidth=1;fillColor=none;align=left;verticalAlign=middle;spacingTop=-1;spacingLeft=3;spacingRight=3;rotatable=0;labelPosition=right;points=[];portConstraint=eastwest;" vertex="1" parent="176">
                    <mxGeometry y="30" width="200" height="8" as="geometry"/>
                </mxCell>
                <mxCell id="168" value="" style="fontStyle=1;align=center;verticalAlign=top;childLayout=stackLayout;horizontal=1;horizontalStack=0;resizeParent=1;resizeParentMax=0;resizeLast=0;marginBottom=0;fontSize=18;" vertex="1" parent="17">
                    <mxGeometry x="40" y="165" width="130" height="38" as="geometry"/>
                </mxCell>
                <mxCell id="169" value="&lt;span style=&quot;font-size: 16px&quot;&gt;Write&lt;/span&gt;" style="html=1;align=left;spacingLeft=4;verticalAlign=top;strokeColor=none;fillColor=none;" vertex="1" parent="168">
                    <mxGeometry width="130" height="30" as="geometry"/>
                </mxCell>
                <mxCell id="170" value="" style="shape=module;jettyWidth=10;jettyHeight=4;" vertex="1" parent="169">
                    <mxGeometry x="1" width="16" height="20" relative="1" as="geometry">
                        <mxPoint x="-25" y="9" as="offset"/>
                    </mxGeometry>
                </mxCell>
                <mxCell id="171" value="" style="line;strokeWidth=1;fillColor=none;align=left;verticalAlign=middle;spacingTop=-1;spacingLeft=3;spacingRight=3;rotatable=0;labelPosition=right;points=[];portConstraint=eastwest;" vertex="1" parent="168">
                    <mxGeometry y="30" width="130" height="8" as="geometry"/>
                </mxCell>
                <mxCell id="172" value="" style="fontStyle=1;align=center;verticalAlign=top;childLayout=stackLayout;horizontal=1;horizontalStack=0;resizeParent=1;resizeParentMax=0;resizeLast=0;marginBottom=0;fontSize=18;" vertex="1" parent="17">
                    <mxGeometry x="40" y="221" width="130" height="38" as="geometry"/>
                </mxCell>
                <mxCell id="173" value="&lt;span style=&quot;font-size: 16px&quot;&gt;Read&lt;/span&gt;" style="html=1;align=left;spacingLeft=4;verticalAlign=top;strokeColor=none;fillColor=none;" vertex="1" parent="172">
                    <mxGeometry width="130" height="30" as="geometry"/>
                </mxCell>
                <mxCell id="174" value="" style="shape=module;jettyWidth=10;jettyHeight=4;" vertex="1" parent="173">
                    <mxGeometry x="1" width="16" height="20" relative="1" as="geometry">
                        <mxPoint x="-25" y="9" as="offset"/>
                    </mxGeometry>
                </mxCell>
                <mxCell id="175" value="" style="line;strokeWidth=1;fillColor=none;align=left;verticalAlign=middle;spacingTop=-1;spacingLeft=3;spacingRight=3;rotatable=0;labelPosition=right;points=[];portConstraint=eastwest;" vertex="1" parent="172">
                    <mxGeometry y="30" width="130" height="8" as="geometry"/>
                </mxCell>
                <mxCell id="54" style="edgeStyle=none;rounded=0;html=1;exitX=0;exitY=0.5;exitDx=0;exitDy=0;fontSize=18;startArrow=none;startFill=0;endArrow=none;endFill=0;startSize=10;endSize=9;strokeWidth=2;" edge="1" parent="1" source="38">
                    <mxGeometry relative="1" as="geometry">
                        <mxPoint x="90" y="405" as="targetPoint"/>
                    </mxGeometry>
                </mxCell>
                <mxCell id="57" style="edgeStyle=none;rounded=0;html=1;exitX=0;exitY=0.5;exitDx=0;exitDy=0;fontSize=18;startArrow=none;startFill=0;endArrow=none;endFill=0;startSize=10;endSize=9;strokeWidth=2;" edge="1" parent="1" source="33">
                    <mxGeometry relative="1" as="geometry">
                        <mxPoint x="90" y="351" as="targetPoint"/>
                    </mxGeometry>
                </mxCell>
                <mxCell id="58" style="edgeStyle=none;rounded=0;html=1;exitX=0;exitY=0.5;exitDx=0;exitDy=0;fontSize=18;startArrow=none;startFill=0;endArrow=none;endFill=0;startSize=10;endSize=9;strokeWidth=2;" edge="1" parent="1" source="30">
                    <mxGeometry relative="1" as="geometry">
                        <mxPoint x="90" y="285" as="targetPoint"/>
                    </mxGeometry>
                </mxCell>
                <mxCell id="59" style="edgeStyle=none;rounded=0;html=1;exitX=0.003;exitY=0.416;exitDx=0;exitDy=0;fontSize=18;startArrow=none;startFill=0;endArrow=none;endFill=0;startSize=10;endSize=9;strokeWidth=2;exitPerimeter=0;" edge="1" parent="1" source="41">
                    <mxGeometry relative="1" as="geometry">
                        <mxPoint x="90" y="226" as="targetPoint"/>
                    </mxGeometry>
                </mxCell>
                <mxCell id="64" style="edgeStyle=none;rounded=0;html=1;entryX=0;entryY=0.5;entryDx=0;entryDy=0;fontSize=18;startArrow=none;startFill=0;endArrow=open;endFill=0;startSize=10;endSize=9;strokeWidth=2;dashed=1;dashPattern=1 1;" edge="1" parent="1" source="42" target="61">
                    <mxGeometry relative="1" as="geometry">
                        <Array as="points">
                            <mxPoint x="500" y="225"/>
                            <mxPoint x="500" y="165"/>
                        </Array>
                    </mxGeometry>
                </mxCell>
                <mxCell id="70" style="edgeStyle=none;rounded=0;html=1;entryX=0;entryY=0.5;entryDx=0;entryDy=0;dashed=1;dashPattern=1 1;fontSize=18;startArrow=none;startFill=0;endArrow=open;endFill=0;startSize=10;endSize=9;strokeWidth=2;" edge="1" parent="1" target="66">
                    <mxGeometry relative="1" as="geometry">
                        <mxPoint x="300" y="288" as="sourcePoint"/>
                        <Array as="points">
                            <mxPoint x="550" y="288"/>
                            <mxPoint x="550" y="235"/>
                        </Array>
                    </mxGeometry>
                </mxCell>
                <mxCell id="76" style="edgeStyle=none;rounded=0;html=1;dashed=1;dashPattern=1 1;fontSize=18;startArrow=none;startFill=0;endArrow=open;endFill=0;startSize=10;endSize=9;strokeWidth=2;exitX=1.013;exitY=0.395;exitDx=0;exitDy=0;exitPerimeter=0;" edge="1" parent="1" source="34">
                    <mxGeometry relative="1" as="geometry">
                        <mxPoint x="540" y="360" as="targetPoint"/>
                        <Array as="points">
                            <mxPoint x="480" y="344"/>
                            <mxPoint x="480" y="360"/>
                        </Array>
                    </mxGeometry>
                </mxCell>
                <mxCell id="81" style="edgeStyle=none;rounded=0;html=1;dashed=1;dashPattern=1 1;fontSize=18;startArrow=none;startFill=0;endArrow=open;endFill=0;startSize=10;endSize=9;strokeWidth=2;" edge="1" parent="1" source="77">
                    <mxGeometry relative="1" as="geometry">
                        <mxPoint x="740" y="190" as="targetPoint"/>
                        <Array as="points">
                            <mxPoint x="830" y="289"/>
                            <mxPoint x="830" y="210"/>
                            <mxPoint x="740" y="210"/>
                        </Array>
                    </mxGeometry>
                </mxCell>
                <mxCell id="88" style="edgeStyle=none;rounded=0;html=1;fontSize=18;startArrow=none;startFill=0;endArrow=open;endFill=0;startSize=10;endSize=9;strokeWidth=2;" edge="1" parent="1" source="72">
                    <mxGeometry relative="1" as="geometry">
                        <mxPoint x="850" y="355" as="targetPoint"/>
                    </mxGeometry>
                </mxCell>
                <mxCell id="108" style="edgeStyle=none;rounded=0;html=1;entryX=0;entryY=0.5;entryDx=0;entryDy=0;fontSize=18;startArrow=none;startFill=0;endArrow=open;endFill=0;startSize=10;endSize=9;strokeWidth=2;dashed=1;dashPattern=1 1;" edge="1" parent="1" source="38" target="94">
                    <mxGeometry relative="1" as="geometry">
                        <Array as="points">
                            <mxPoint x="530" y="405"/>
                            <mxPoint x="530" y="435"/>
                        </Array>
                    </mxGeometry>
                </mxCell>
                <mxCell id="110" style="edgeStyle=none;rounded=0;html=1;entryX=0;entryY=0.5;entryDx=0;entryDy=0;fontSize=18;startArrow=none;startFill=0;endArrow=open;endFill=0;startSize=10;endSize=9;strokeWidth=2;dashed=1;dashPattern=1 1;" edge="1" parent="1" source="38" target="99">
                    <mxGeometry relative="1" as="geometry">
                        <Array as="points">
                            <mxPoint x="530" y="405"/>
                            <mxPoint x="530" y="495"/>
                        </Array>
                    </mxGeometry>
                </mxCell>
                <mxCell id="111" style="edgeStyle=none;rounded=0;html=1;entryX=0;entryY=0.5;entryDx=0;entryDy=0;fontSize=18;startArrow=none;startFill=0;endArrow=open;endFill=0;startSize=10;endSize=9;strokeWidth=2;dashed=1;dashPattern=1 1;" edge="1" parent="1" source="38" target="103">
                    <mxGeometry relative="1" as="geometry">
                        <Array as="points">
                            <mxPoint x="530" y="405"/>
                            <mxPoint x="530" y="575"/>
                        </Array>
                    </mxGeometry>
                </mxCell>
                <mxCell id="128" style="edgeStyle=none;rounded=0;html=1;fontSize=18;startArrow=none;startFill=0;endArrow=open;endFill=0;startSize=10;endSize=9;strokeWidth=2;" edge="1" parent="1" source="125">
                    <mxGeometry relative="1" as="geometry">
                        <mxPoint x="790" y="494.9999999999998" as="targetPoint"/>
                    </mxGeometry>
                </mxCell>
                <mxCell id="164" style="edgeStyle=none;rounded=0;sketch=0;html=1;entryX=0.999;entryY=0.367;entryDx=0;entryDy=0;entryPerimeter=0;shadow=0;fontSize=18;startArrow=none;startFill=0;endArrow=open;endFill=0;startSize=10;endSize=9;strokeColor=#FFFFFF;strokeWidth=2;dashed=1;" edge="1" parent="1" source="161" target="15">
                    <mxGeometry relative="1" as="geometry">
                        <Array as="points">
                            <mxPoint x="1195" y="359"/>
                        </Array>
                    </mxGeometry>
                </mxCell>
                <mxCell id="182" style="edgeStyle=none;rounded=0;sketch=0;html=1;entryX=0;entryY=0.5;entryDx=0;entryDy=0;shadow=0;fontSize=18;startArrow=none;startFill=0;endArrow=open;endFill=0;strokeColor=#FFFFFF;strokeWidth=2;" edge="1" parent="1" source="161" target="169">
                    <mxGeometry relative="1" as="geometry"/>
                </mxCell>
                <mxCell id="161" value="requestWrite" style="shape=mxgraph.uml25.actionParams;html=1;align=center;verticalAlign=top;absoluteArcSize=1;arcSize=10;dashed=0;spacingLeft=10;spacingTop=5;fontSize=18;" vertex="1" parent="1">
                    <mxGeometry x="1120" y="280" width="150" height="50" as="geometry"/>
                </mxCell>
                <mxCell id="162" style="edgeStyle=none;rounded=0;sketch=0;html=1;entryX=0.6;entryY=0;entryDx=0;entryDy=0;entryPerimeter=0;shadow=0;fontSize=18;startArrow=none;startFill=0;endArrow=open;endFill=0;startSize=10;endSize=9;strokeWidth=2;strokeColor=#FFFFFF;" edge="1" parent="1" target="161">
                    <mxGeometry relative="1" as="geometry">
                        <mxPoint x="1091" y="230" as="sourcePoint"/>
                        <Array as="points">
                            <mxPoint x="1210" y="230"/>
                        </Array>
                    </mxGeometry>
                </mxCell>
                <mxCell id="166" style="edgeStyle=none;rounded=0;sketch=0;html=1;entryX=0.999;entryY=0.562;entryDx=0;entryDy=0;entryPerimeter=0;shadow=0;dashed=1;fontSize=18;startArrow=none;startFill=0;endArrow=open;endFill=0;startSize=10;endSize=9;strokeColor=#FFFFFF;strokeWidth=2;" edge="1" parent="1" source="165" target="15">
                    <mxGeometry relative="1" as="geometry">
                        <Array as="points">
                            <mxPoint x="1195" y="522"/>
                        </Array>
                    </mxGeometry>
                </mxCell>
                <mxCell id="185" style="edgeStyle=none;rounded=0;sketch=0;html=1;entryX=0.292;entryY=1.008;entryDx=0;entryDy=0;shadow=0;dashed=1;fontSize=18;startArrow=open;startFill=0;endArrow=none;endFill=0;strokeColor=#FFFFFF;strokeWidth=2;exitX=1.002;exitY=0.703;exitDx=0;exitDy=0;exitPerimeter=0;entryPerimeter=0;" edge="1" parent="1" source="165" target="172">
                    <mxGeometry relative="1" as="geometry"/>
                </mxCell>
                <mxCell id="165" value="requestRead" style="shape=mxgraph.uml25.actionParams;html=1;align=center;verticalAlign=top;absoluteArcSize=1;arcSize=10;dashed=0;spacingLeft=10;spacingTop=5;fontSize=18;" vertex="1" parent="1">
                    <mxGeometry x="1120" y="430" width="150" height="50" as="geometry"/>
                </mxCell>
                <mxCell id="167" style="edgeStyle=none;rounded=0;sketch=0;html=1;entryX=0.507;entryY=-0.02;entryDx=0;entryDy=0;entryPerimeter=0;shadow=0;fontSize=18;startArrow=none;startFill=0;endArrow=open;endFill=0;startSize=10;endSize=9;strokeColor=#FFFFFF;strokeWidth=2;exitX=1;exitY=0.416;exitDx=0;exitDy=0;exitPerimeter=0;" edge="1" parent="1" source="15" target="165">
                    <mxGeometry relative="1" as="geometry">
                        <Array as="points">
                            <mxPoint x="1196" y="400"/>
                        </Array>
                    </mxGeometry>
                </mxCell>
                <mxCell id="180" style="edgeStyle=none;rounded=0;sketch=0;html=1;shadow=0;fontSize=18;startArrow=none;startFill=0;endArrow=block;endFill=1;startSize=10;endSize=9;strokeColor=#FFFFFF;strokeWidth=2;" edge="1" parent="1" source="169">
                    <mxGeometry relative="1" as="geometry">
                        <mxPoint x="1550" y="250" as="targetPoint"/>
                        <Array as="points">
                            <mxPoint x="1550" y="285"/>
                        </Array>
                    </mxGeometry>
                </mxCell>
                <mxCell id="181" style="edgeStyle=none;rounded=0;sketch=0;html=1;shadow=0;fontSize=18;startArrow=none;startFill=0;endArrow=block;endFill=1;startSize=10;endSize=9;strokeColor=#FFFFFF;strokeWidth=2;exitX=1;exitY=0.5;exitDx=0;exitDy=0;" edge="1" parent="1" source="173">
                    <mxGeometry relative="1" as="geometry">
                        <mxPoint x="1550" y="250" as="targetPoint"/>
                        <Array as="points">
                            <mxPoint x="1550" y="341"/>
                        </Array>
                    </mxGeometry>
                </mxCell>
                <mxCell id="183" style="edgeStyle=none;rounded=0;sketch=0;html=1;entryX=-0.003;entryY=0.852;entryDx=0;entryDy=0;shadow=0;fontSize=18;startArrow=open;startFill=0;endArrow=none;endFill=0;strokeColor=#FFFFFF;strokeWidth=2;exitX=0.999;exitY=0.603;exitDx=0;exitDy=0;exitPerimeter=0;entryPerimeter=0;dashed=1;" edge="1" parent="1" source="161" target="168">
                    <mxGeometry relative="1" as="geometry"/>
                </mxCell>
                <mxCell id="186" style="edgeStyle=none;rounded=0;sketch=0;html=1;entryX=0.109;entryY=0.987;entryDx=0;entryDy=0;shadow=0;fontSize=18;startArrow=none;startFill=0;endArrow=open;endFill=0;strokeColor=#FFFFFF;strokeWidth=2;exitX=1.001;exitY=0.379;exitDx=0;exitDy=0;exitPerimeter=0;entryPerimeter=0;" edge="1" parent="1" source="165" target="172">
                    <mxGeometry relative="1" as="geometry"/>
                </mxCell>
                <mxCell id="265" style="edgeStyle=none;rounded=0;sketch=0;html=1;entryX=0;entryY=0.5;entryDx=0;entryDy=0;shadow=0;fontSize=18;startArrow=none;startFill=0;endArrow=open;endFill=0;strokeColor=#FFFFFF;strokeWidth=2;endSize=9;dashed=1;dashPattern=1 1;" edge="1" parent="1" source="46" target="130">
                    <mxGeometry relative="1" as="geometry">
                        <Array as="points">
                            <mxPoint x="490" y="465"/>
                            <mxPoint x="490" y="755"/>
                        </Array>
                    </mxGeometry>
                </mxCell>
                <mxCell id="266" style="edgeStyle=none;rounded=0;html=1;entryX=0.001;entryY=0.62;entryDx=0;entryDy=0;dashed=1;dashPattern=1 1;fontSize=18;startArrow=none;startFill=0;endArrow=open;endFill=0;startSize=10;endSize=9;strokeWidth=2;entryPerimeter=0;" edge="1" parent="1" target="78">
                    <mxGeometry relative="1" as="geometry">
                        <mxPoint x="300" y="288" as="sourcePoint"/>
                        <Array as="points">
                            <mxPoint x="550" y="288"/>
                        </Array>
                    </mxGeometry>
                </mxCell>
            </root>
        </mxGraphModel>
    </diagram>
</mxfile>